<svg class="icn-project" xmlns="http://www.w3.org/2000/svg" viewBox="0 0 64 64">
    <path fill="none" stroke="#00B4EB" stroke-width="2" d="M48 62H13c-1.7 0-3-1.3-3-3V5c0-1.7 1.3-3 3-3h38c1.7 0 3 1.3 3 3v54c0 1.7-1.3 3-3 3h-1" style="transition: stroke-dashoffset 1s ease-in-out; stroke-dasharray: 200.928, 200.928; stroke-dashoffset: 0; opacity: 1;"></path>
    <path fill="none" stroke="#00B4EB" stroke-width="2" d="M45 6v3c0 1.7-1.3 3-3 3H22c-1.7 0-3-1.3-3-3V6M25.5 7h14M21 23h22M21 29h22M21 35h22M21 41h12M42 45c2.8 0 5 2.2 5 5s-2.2 5-5 5-5-2.2-5-5 2.2-5 5-5" style="transition: stroke-dashoffset 1s ease-in-out; stroke-dasharray: 158.951, 158.951; stroke-dashoffset: 0; opacity: 1;"></path>
</svg>